<?xml version="1.0" standalone="no"?>
<!DOCTYPE svg PUBLIC "-//W3C//DTD SVG 20010904//EN"
 "http://www.w3.org/TR/2001/REC-SVG-20010904/DTD/svg10.dtd">
<svg version="1.0" xmlns="http://www.w3.org/2000/svg"
 width="300.000000pt" height="300.000000pt" viewBox="0 0 300.000000 300.000000"
 preserveAspectRatio="xMidYMid meet">
<metadata>
Created by potrace 1.11, written by Peter Selinger 2001-2013
</metadata>
<g transform="translate(0.000000,300.000000) scale(0.100000,-0.100000)"
fill="#000000" stroke="none">
<path d="M665 2433 c-377 -80 -653 -409 -657 -783 -2 -151 18 -248 75 -370
111 -237 316 -401 575 -460 59 -14 222 -18 293 -8 258 37 498 214 614 453 54
111 75 193 81 310 3 50 12 122 20 162 85 408 592 561 889 268 34 -33 73 -80
87 -105 65 -112 90 -270 62 -391 -14 -60 -68 -179 -82 -179 -4 0 -69 157 -144
348 l-137 347 -157 0 c-129 0 -158 -3 -165 -15 -5 -8 -29 -67 -53 -130 -24
-63 -144 -371 -266 -685 -122 -314 -228 -587 -236 -607 l-13 -38 158 0 158 0
58 155 c31 85 59 155 61 155 2 0 21 -7 41 -15 104 -40 300 -51 428 -25 295 61
551 304 625 594 26 104 27 316 1 417 -68 263 -260 474 -518 569 -105 38 -153
45 -293 44 -125 -1 -228 -23 -329 -70 -203 -95 -371 -282 -436 -486 -30 -96
-33 -112 -40 -218 -11 -162 -22 -208 -72 -300 -44 -83 -140 -176 -225 -218
-153 -75 -314 -77 -463 -6 -339 162 -414 595 -149 858 171 169 434 202 642 80
58 -34 130 -101 168 -155 17 -25 30 -36 32 -28 13 41 69 161 96 204 18 28 35
55 39 61 9 16 -62 85 -145 140 -83 56 -172 96 -263 119 -93 24 -269 28 -360 8z
m1620 -1037 c77 -205 94 -260 84 -267 -32 -20 -151 -39 -211 -34 -73 6 -79 7
-136 25 -33 10 -41 17 -36 29 3 9 10 27 14 41 5 14 20 57 35 95 42 111 106
286 123 338 9 26 19 44 23 40 3 -5 50 -124 104 -267z"/>
</g>
</svg>
